<?xml version="1.0" encoding="utf-8" standalone="no"?>
<!DOCTYPE svg PUBLIC "-//W3C//DTD SVG 1.1//EN"
  "http://www.w3.org/Graphics/SVG/1.1/DTD/svg11.dtd">
<svg xmlns:xlink="http://www.w3.org/1999/xlink" width="489.6pt" height="360pt" viewBox="0 0 489.6 360" xmlns="http://www.w3.org/2000/svg" version="1.1">
 <metadata>
  <rdf:RDF xmlns:dc="http://purl.org/dc/elements/1.1/" xmlns:cc="http://creativecommons.org/ns#" xmlns:rdf="http://www.w3.org/1999/02/22-rdf-syntax-ns#">
   <cc:Work>
    <dc:type rdf:resource="http://purl.org/dc/dcmitype/StillImage"/>
    <dc:date>2026-09-12T23:49:55.575437</dc:date>
    <dc:format>image/svg+xml</dc:format>
    <dc:creator>
     <cc:Agent>
      <dc:title>Matplotlib v3.9.4, https://matplotlib.org/</dc:title>
     </cc:Agent>
    </dc:creator>
   </cc:Work>
  </rdf:RDF>
 </metadata>
 <defs>
  <style type="text/css">*{stroke-linejoin: round; stroke-linecap: butt}</style>
 </defs>
 <g id="figure_1">
  <g id="patch_1">
   <path d="M 0 360 
L 489.6 360 
L 489.6 0 
L 0 0 
z
" style="fill: #ffffff"/>
  </g>
  <g id="axes_1">
   <g id="patch_2">
    <path d="M 40.878834 161.889994 
L 481.652182 161.889994 
L 481.652182 3.00024 
L 40.878834 3.00024 
z
" style="fill: #ffffff"/>
   </g>
   <g id="matplotlib.axis_1">
    <g id="xtick_1">
     <g id="line2d_1">
      <defs>
       <path id="me603f8f3f8" d="M 0 0 
L 0 3.5 
" style="stroke: #000000; stroke-width: 0.8"/>
      </defs>
      <g>
       <use xlink:href="#me603f8f3f8" x="40.878834" y="161.889994" style="stroke: #000000; stroke-width: 0.8"/>
      </g>
     </g>
    </g>
    <g id="xtick_2">
     <g id="line2d_2">
      <g>
       <use xlink:href="#me603f8f3f8" x="95.975502" y="161.889994" style="stroke: #000000; stroke-width: 0.8"/>
      </g>
     </g>
    </g>
    <g id="xtick_3">
     <g id="line2d_3">
      <g>
       <use xlink:href="#me603f8f3f8" x="151.072171" y="161.889994" style="stroke: #000000; stroke-width: 0.8"/>
      </g>
     </g>
    </g>
    <g id="xtick_4">
     <g id="line2d_4">
      <g>
       <use xlink:href="#me603f8f3f8" x="206.168839" y="161.889994" style="stroke: #000000; stroke-width: 0.8"/>
      </g>
     </g>
    </g>
    <g id="xtick_5">
     <g id="line2d_5">
      <g>
       <use xlink:href="#me603f8f3f8" x="261.265508" y="161.889994" style="stroke: #000000; stroke-width: 0.8"/>
      </g>
     </g>
    </g>
    <g id="xtick_6">
     <g id="line2d_6">
      <g>
       <use xlink:href="#me603f8f3f8" x="316.362176" y="161.889994" style="stroke: #000000; stroke-width: 0.8"/>
      </g>
     </g>
    </g>
    <g id="xtick_7">
     <g id="line2d_7">
      <g>
       <use xlink:href="#me603f8f3f8" x="371.458845" y="161.889994" style="stroke: #000000; stroke-width: 0.8"/>
      </g>
     </g>
    </g>
    <g id="xtick_8">
     <g id="line2d_8">
      <g>
       <use xlink:href="#me603f8f3f8" x="426.555513" y="161.889994" style="stroke: #000000; stroke-width: 0.8"/>
      </g>
     </g>
    </g>
    <g id="xtick_9">
     <g id="line2d_9">
      <g>
       <use xlink:href="#me603f8f3f8" x="481.652182" y="161.889994" style="stroke: #000000; stroke-width: 0.8"/>
      </g>
     </g>
    </g>
   </g>
   <g id="matplotlib.axis_2">
    <g id="ytick_1">
     <g id="line2d_10">
      <defs>
       <path id="md2bfa4ea56" d="M 0 0 
L -3.5 0 
" style="stroke: #000000; stroke-width: 0.8"/>
      </defs>
      <g>
       <use xlink:href="#md2bfa4ea56" x="40.878834" y="141.681557" style="stroke: #000000; stroke-width: 0.8"/>
      </g>
     </g>
     <g id="text_1">
      <text style="font: 7px 'Microsoft YaHei', 'SimHei', 'Arial', 'DejaVu Sans', sans-serif; text-anchor: end" x="33.878834" y="144.47937" transform="rotate(-0 33.878834 144.47937)">30</text>
     </g>
    </g>
    <g id="ytick_2">
     <g id="line2d_11">
      <g>
       <use xlink:href="#md2bfa4ea56" x="40.878834" y="109.216118" style="stroke: #000000; stroke-width: 0.8"/>
      </g>
     </g>
     <g id="text_2">
      <text style="font: 7px 'Microsoft YaHei', 'SimHei', 'Arial', 'DejaVu Sans', sans-serif; text-anchor: end" x="33.878834" y="112.013931" transform="rotate(-0 33.878834 112.013931)">35</text>
     </g>
    </g>
    <g id="ytick_3">
     <g id="line2d_12">
      <g>
       <use xlink:href="#md2bfa4ea56" x="40.878834" y="76.750679" style="stroke: #000000; stroke-width: 0.8"/>
      </g>
     </g>
     <g id="text_3">
      <text style="font: 7px 'Microsoft YaHei', 'SimHei', 'Arial', 'DejaVu Sans', sans-serif; text-anchor: end" x="33.878834" y="79.548492" transform="rotate(-0 33.878834 79.548492)">40</text>
     </g>
    </g>
    <g id="ytick_4">
     <g id="line2d_13">
      <g>
       <use xlink:href="#md2bfa4ea56" x="40.878834" y="44.28524" style="stroke: #000000; stroke-width: 0.8"/>
      </g>
     </g>
     <g id="text_4">
      <text style="font: 7px 'Microsoft YaHei', 'SimHei', 'Arial', 'DejaVu Sans', sans-serif; text-anchor: end" x="33.878834" y="47.083053" transform="rotate(-0 33.878834 47.083053)">45</text>
     </g>
    </g>
    <g id="ytick_5">
     <g id="line2d_14">
      <g>
       <use xlink:href="#md2bfa4ea56" x="40.878834" y="11.819801" style="stroke: #000000; stroke-width: 0.8"/>
      </g>
     </g>
     <g id="text_5">
      <text style="font: 7px 'Microsoft YaHei', 'SimHei', 'Arial', 'DejaVu Sans', sans-serif; text-anchor: end" x="33.878834" y="14.617614" transform="rotate(-0 33.878834 14.617614)">50</text>
     </g>
    </g>
    <g id="text_6">
     <text style="font: 8px 'Microsoft YaHei', 'SimHei', 'Arial', 'DejaVu Sans', sans-serif; text-anchor: middle" x="19.680396" y="82.445117" transform="rotate(-90 19.680396 82.445117)">烘房温度（℃）</text>
    </g>
   </g>
   <g id="line2d_15">
    <path d="M 40.878834 154.667733 
L 42.715389 151.239382 
L 44.551945 146.927972 
L 46.388501 143.733373 
L 48.225056 141.441313 
L 50.061612 136.266322 
L 51.898167 133.285995 
L 53.734723 129.864137 
L 55.571279 127.909718 
L 57.407834 123.955428 
L 59.24439 120.89069 
L 61.080946 116.49487 
L 62.917501 113.969058 
L 64.754057 110.475777 
L 66.590612 108.2941 
L 68.427168 105.81374 
L 70.263724 102.132159 
L 72.100279 100.424477 
L 73.936835 95.794906 
L 75.77339 93.509339 
L 77.609946 90.503039 
L 79.446502 88.866781 
L 81.283057 84.756656 
L 84.956169 80.269933 
L 86.792724 79.38038 
L 88.62928 76.354601 
L 90.465835 75.205324 
L 92.302391 72.718472 
L 94.138947 69.179739 
L 95.975502 66.926637 
L 97.812058 64.296937 
L 99.648613 64.076172 
L 103.321725 59.940075 
L 105.15828 58.927153 
L 106.994836 57.368812 
L 108.831392 54.719632 
L 110.667947 53.804107 
L 112.504503 50.973121 
L 114.341058 50.116033 
L 116.177614 47.512305 
L 118.01417 46.473411 
L 119.850725 46.226673 
L 121.687281 43.389194 
L 123.523837 42.187973 
L 125.360392 42.18148 
L 127.196948 41.285434 
L 129.033503 38.973894 
L 130.870059 39.486848 
L 132.706615 38.246669 
L 134.54317 37.798645 
L 136.379726 34.467691 
L 138.216281 33.883314 
L 141.889393 31.734101 
L 143.725948 31.870456 
L 145.562504 30.72118 
L 147.39906 31.24712 
L 149.235615 30.578332 
L 151.072171 28.149917 
L 152.908726 28.065507 
L 154.745282 27.10453 
L 156.581838 25.844871 
L 158.418393 25.630599 
L 160.254949 25.286465 
L 162.091504 24.702087 
L 165.764616 25.286465 
L 167.601171 23.513852 
L 169.437727 23.728124 
L 171.274283 22.656765 
L 173.110838 20.812728 
L 174.947394 22.338603 
L 176.783949 22.487944 
L 178.620505 21.390613 
L 180.457061 20.975055 
L 182.293616 19.449179 
L 184.130172 19.436193 
L 185.966728 18.390806 
L 187.803283 18.449244 
L 189.639839 18.962198 
L 191.476394 17.377884 
L 193.31295 19.15699 
L 195.149506 19.351783 
L 196.986061 18.877788 
L 198.822617 16.618193 
L 200.659172 17.215557 
L 202.495728 17.949276 
L 204.332284 16.644165 
L 206.168839 17.559691 
L 208.005395 15.618258 
L 209.841951 16.228608 
L 213.515062 16.33899 
L 215.351617 15.11829 
L 219.024729 16.546769 
L 220.861284 16.300032 
L 222.69784 13.449566 
L 224.534395 13.488525 
L 226.370951 14.027451 
L 228.207507 15.306589 
L 230.044062 12.923626 
L 231.880618 13.423594 
L 233.717174 13.514497 
L 235.553729 14.274188 
L 239.22684 15.215686 
L 241.063396 12.527548 
L 242.899952 13.87811 
L 244.736507 14.618322 
L 246.573063 14.202764 
L 248.409618 13.241787 
L 250.246174 14.468981 
L 252.08273 12.202893 
L 253.919285 12.456124 
L 255.755841 12.521055 
L 257.592397 13.384635 
L 259.428952 12.696368 
L 261.265508 12.780778 
L 263.102063 12.514562 
L 264.938619 14.293668 
L 266.775175 13.170363 
L 268.61173 14.339119 
L 270.448286 12.82623 
L 274.121397 13.87811 
L 275.957953 13.969013 
L 277.794508 12.365221 
L 279.631064 13.676824 
L 281.46762 11.202958 
L 283.304175 12.28081 
L 285.140731 13.008036 
L 286.977286 12.189907 
L 288.813842 14.001479 
L 290.650398 10.943234 
L 292.486953 12.456124 
L 294.323509 11.456188 
L 296.160065 13.702797 
L 297.99662 12.371714 
L 299.833176 12.339248 
L 301.669731 10.865317 
L 303.506287 12.034073 
L 305.342843 12.332755 
L 307.179398 12.982064 
L 309.015954 12.754806 
L 310.852509 12.124976 
L 312.689065 12.371714 
L 314.525621 13.715783 
L 316.362176 10.761428 
L 318.198732 10.53417 
L 320.035288 12.988557 
L 321.871843 11.644488 
L 323.708399 13.092446 
L 325.544954 11.261396 
L 327.38151 12.527548 
L 329.218066 11.300354 
L 332.891177 10.949727 
L 334.727732 13.092446 
L 336.564288 10.469239 
L 338.400844 12.696368 
L 340.237399 13.319704 
L 342.073955 11.644488 
L 343.910511 12.241852 
L 345.747066 10.748442 
L 347.583622 10.819866 
L 349.420177 12.410672 
L 351.256733 10.352363 
L 353.093289 12.501575 
L 354.929844 11.767856 
L 356.7664 12.611958 
L 358.602956 10.404308 
L 360.439511 12.91064 
L 362.276067 13.300225 
L 364.112622 12.02758 
L 365.949178 10.222502 
L 367.785734 10.547156 
L 369.622289 11.014658 
L 371.458845 10.553649 
L 373.2954 10.540663 
L 375.131956 11.761363 
L 376.968512 12.417165 
L 378.805067 10.936741 
L 380.641623 11.293861 
L 384.314734 13.137898 
L 386.15129 11.021151 
L 387.987845 12.592479 
L 389.824401 10.404308 
L 391.660957 12.663903 
L 393.497512 13.046995 
L 395.334068 10.741949 
L 397.170623 12.943105 
L 399.007179 12.858695 
L 400.843735 11.495147 
L 402.68029 10.605594 
L 404.516846 12.806751 
L 406.353402 12.436645 
L 408.189957 10.917262 
L 410.026513 10.287432 
L 411.863068 11.819801 
L 413.699624 12.975571 
L 415.53618 13.397621 
L 417.372735 12.696368 
L 419.209291 13.014529 
L 421.045847 11.241916 
L 422.882402 13.046995 
L 424.718958 11.800322 
L 426.555513 11.189972 
L 428.392069 11.553585 
L 430.228625 12.793764 
L 432.06518 10.832852 
L 433.901736 11.118548 
L 435.738291 11.047124 
L 437.574847 13.014529 
L 439.411403 13.040502 
L 441.247958 10.43028 
L 443.084514 12.150949 
L 444.92107 12.46911 
L 448.594181 11.293861 
L 450.430736 10.339377 
L 452.267292 12.514562 
L 454.103848 10.443267 
L 455.940403 13.365156 
L 457.776959 11.637995 
L 459.613514 11.384764 
L 461.45007 13.098939 
L 463.286626 12.988557 
L 465.123181 12.079525 
L 466.959737 10.306912 
L 468.796293 11.508133 
L 470.632848 10.410801 
L 472.469404 10.832852 
L 474.305959 11.923691 
L 476.142515 10.897783 
L 477.979071 13.384635 
L 479.815626 13.085953 
L 481.652182 10.748442 
L 481.652182 10.748442 
" clip-path="url(#p24865cd9c2)" style="fill: none; stroke: #d55e00; stroke-width: 1.1; stroke-linecap: square"/>
   </g>
   <g id="patch_3">
    <path d="M 40.878834 161.889994 
L 40.878834 3.00024 
" style="fill: none; stroke: #000000; stroke-width: 0.8; stroke-linejoin: miter; stroke-linecap: square"/>
   </g>
   <g id="patch_4">
    <path d="M 40.878834 161.889994 
L 481.652182 161.889994 
" style="fill: none; stroke: #000000; stroke-width: 0.8; stroke-linejoin: miter; stroke-linecap: square"/>
   </g>
  </g>
  <g id="axes_2">
   <g id="patch_5">
    <path d="M 40.878834 330.280229 
L 481.652182 330.280229 
L 481.652182 171.390474 
L 40.878834 171.390474 
z
" style="fill: #ffffff"/>
   </g>
   <g id="matplotlib.axis_3">
    <g id="xtick_10">
     <g id="line2d_16">
      <g>
       <use xlink:href="#me603f8f3f8" x="40.878834" y="330.280229" style="stroke: #000000; stroke-width: 0.8"/>
      </g>
     </g>
     <g id="text_7">
      <text style="font: 7px 'Microsoft YaHei', 'SimHei', 'Arial', 'DejaVu Sans', sans-serif; text-anchor: middle" x="40.878834" y="342.875854" transform="rotate(-0 40.878834 342.875854)">0.0</text>
     </g>
    </g>
    <g id="xtick_11">
     <g id="line2d_17">
      <g>
       <use xlink:href="#me603f8f3f8" x="95.975502" y="330.280229" style="stroke: #000000; stroke-width: 0.8"/>
      </g>
     </g>
     <g id="text_8">
      <text style="font: 7px 'Microsoft YaHei', 'SimHei', 'Arial', 'DejaVu Sans', sans-serif; text-anchor: middle" x="95.975502" y="342.875854" transform="rotate(-0 95.975502 342.875854)">0.5</text>
     </g>
    </g>
    <g id="xtick_12">
     <g id="line2d_18">
      <g>
       <use xlink:href="#me603f8f3f8" x="151.072171" y="330.280229" style="stroke: #000000; stroke-width: 0.8"/>
      </g>
     </g>
     <g id="text_9">
      <text style="font: 7px 'Microsoft YaHei', 'SimHei', 'Arial', 'DejaVu Sans', sans-serif; text-anchor: middle" x="151.072171" y="342.875854" transform="rotate(-0 151.072171 342.875854)">1.0</text>
     </g>
    </g>
    <g id="xtick_13">
     <g id="line2d_19">
      <g>
       <use xlink:href="#me603f8f3f8" x="206.168839" y="330.280229" style="stroke: #000000; stroke-width: 0.8"/>
      </g>
     </g>
     <g id="text_10">
      <text style="font: 7px 'Microsoft YaHei', 'SimHei', 'Arial', 'DejaVu Sans', sans-serif; text-anchor: middle" x="206.168839" y="342.875854" transform="rotate(-0 206.168839 342.875854)">1.5</text>
     </g>
    </g>
    <g id="xtick_14">
     <g id="line2d_20">
      <g>
       <use xlink:href="#me603f8f3f8" x="261.265508" y="330.280229" style="stroke: #000000; stroke-width: 0.8"/>
      </g>
     </g>
     <g id="text_11">
      <text style="font: 7px 'Microsoft YaHei', 'SimHei', 'Arial', 'DejaVu Sans', sans-serif; text-anchor: middle" x="261.265508" y="342.875854" transform="rotate(-0 261.265508 342.875854)">2.0</text>
     </g>
    </g>
    <g id="xtick_15">
     <g id="line2d_21">
      <g>
       <use xlink:href="#me603f8f3f8" x="316.362176" y="330.280229" style="stroke: #000000; stroke-width: 0.8"/>
      </g>
     </g>
     <g id="text_12">
      <text style="font: 7px 'Microsoft YaHei', 'SimHei', 'Arial', 'DejaVu Sans', sans-serif; text-anchor: middle" x="316.362176" y="342.875854" transform="rotate(-0 316.362176 342.875854)">2.5</text>
     </g>
    </g>
    <g id="xtick_16">
     <g id="line2d_22">
      <g>
       <use xlink:href="#me603f8f3f8" x="371.458845" y="330.280229" style="stroke: #000000; stroke-width: 0.8"/>
      </g>
     </g>
     <g id="text_13">
      <text style="font: 7px 'Microsoft YaHei', 'SimHei', 'Arial', 'DejaVu Sans', sans-serif; text-anchor: middle" x="371.458845" y="342.875854" transform="rotate(-0 371.458845 342.875854)">3.0</text>
     </g>
    </g>
    <g id="xtick_17">
     <g id="line2d_23">
      <g>
       <use xlink:href="#me603f8f3f8" x="426.555513" y="330.280229" style="stroke: #000000; stroke-width: 0.8"/>
      </g>
     </g>
     <g id="text_14">
      <text style="font: 7px 'Microsoft YaHei', 'SimHei', 'Arial', 'DejaVu Sans', sans-serif; text-anchor: middle" x="426.555513" y="342.875854" transform="rotate(-0 426.555513 342.875854)">3.5</text>
     </g>
    </g>
    <g id="xtick_18">
     <g id="line2d_24">
      <g>
       <use xlink:href="#me603f8f3f8" x="481.652182" y="330.280229" style="stroke: #000000; stroke-width: 0.8"/>
      </g>
     </g>
     <g id="text_15">
      <text style="font: 7px 'Microsoft YaHei', 'SimHei', 'Arial', 'DejaVu Sans', sans-serif; text-anchor: middle" x="481.652182" y="342.875854" transform="rotate(-0 481.652182 342.875854)">4.0</text>
     </g>
    </g>
    <g id="text_16">
     <text style="font: 8px 'Microsoft YaHei', 'SimHei', 'Arial', 'DejaVu Sans', sans-serif; text-anchor: middle" x="261.265508" y="355.01101" transform="rotate(-0 261.265508 355.01101)">时间（h）</text>
    </g>
   </g>
   <g id="matplotlib.axis_4">
    <g id="ytick_6">
     <g id="line2d_25">
      <g>
       <use xlink:href="#md2bfa4ea56" x="40.878834" y="321.312548" style="stroke: #000000; stroke-width: 0.8"/>
      </g>
     </g>
     <g id="text_17">
      <text style="font: 7px 'Microsoft YaHei', 'SimHei', 'Arial', 'DejaVu Sans', sans-serif; text-anchor: end" x="33.878834" y="324.11036" transform="rotate(-0 33.878834 324.11036)">0.020</text>
     </g>
    </g>
    <g id="ytick_7">
     <g id="line2d_26">
      <g>
       <use xlink:href="#md2bfa4ea56" x="40.878834" y="297.725802" style="stroke: #000000; stroke-width: 0.8"/>
      </g>
     </g>
     <g id="text_18">
      <text style="font: 7px 'Microsoft YaHei', 'SimHei', 'Arial', 'DejaVu Sans', sans-serif; text-anchor: end" x="33.878834" y="300.523615" transform="rotate(-0 33.878834 300.523615)">0.025</text>
     </g>
    </g>
    <g id="ytick_8">
     <g id="line2d_27">
      <g>
       <use xlink:href="#md2bfa4ea56" x="40.878834" y="274.139056" style="stroke: #000000; stroke-width: 0.8"/>
      </g>
     </g>
     <g id="text_19">
      <text style="font: 7px 'Microsoft YaHei', 'SimHei', 'Arial', 'DejaVu Sans', sans-serif; text-anchor: end" x="33.878834" y="276.936869" transform="rotate(-0 33.878834 276.936869)">0.030</text>
     </g>
    </g>
    <g id="ytick_9">
     <g id="line2d_28">
      <g>
       <use xlink:href="#md2bfa4ea56" x="40.878834" y="250.552311" style="stroke: #000000; stroke-width: 0.8"/>
      </g>
     </g>
     <g id="text_20">
      <text style="font: 7px 'Microsoft YaHei', 'SimHei', 'Arial', 'DejaVu Sans', sans-serif; text-anchor: end" x="33.878834" y="253.350123" transform="rotate(-0 33.878834 253.350123)">0.035</text>
     </g>
    </g>
    <g id="ytick_10">
     <g id="line2d_29">
      <g>
       <use xlink:href="#md2bfa4ea56" x="40.878834" y="226.965565" style="stroke: #000000; stroke-width: 0.8"/>
      </g>
     </g>
     <g id="text_21">
      <text style="font: 7px 'Microsoft YaHei', 'SimHei', 'Arial', 'DejaVu Sans', sans-serif; text-anchor: end" x="33.878834" y="229.763377" transform="rotate(-0 33.878834 229.763377)">0.040</text>
     </g>
    </g>
    <g id="ytick_11">
     <g id="line2d_30">
      <g>
       <use xlink:href="#md2bfa4ea56" x="40.878834" y="203.378819" style="stroke: #000000; stroke-width: 0.8"/>
      </g>
     </g>
     <g id="text_22">
      <text style="font: 7px 'Microsoft YaHei', 'SimHei', 'Arial', 'DejaVu Sans', sans-serif; text-anchor: end" x="33.878834" y="206.176632" transform="rotate(-0 33.878834 206.176632)">0.045</text>
     </g>
    </g>
    <g id="ytick_12">
     <g id="line2d_31">
      <g>
       <use xlink:href="#md2bfa4ea56" x="40.878834" y="179.792073" style="stroke: #000000; stroke-width: 0.8"/>
      </g>
     </g>
     <g id="text_23">
      <text style="font: 7px 'Microsoft YaHei', 'SimHei', 'Arial', 'DejaVu Sans', sans-serif; text-anchor: end" x="33.878834" y="182.589886" transform="rotate(-0 33.878834 182.589886)">0.050</text>
     </g>
    </g>
    <g id="text_24">
     <text style="font: 8px 'Microsoft YaHei', 'SimHei', 'Arial', 'DejaVu Sans', sans-serif; text-anchor: middle" x="9.73899" y="250.835352" transform="rotate(-90 9.73899 250.835352)">环境水分浓度（kg/kg）</text>
    </g>
   </g>
   <g id="line2d_32">
    <path d="M 40.878834 323.057967 
L 42.715389 321.218201 
L 44.551945 318.812353 
L 46.388501 316.595199 
L 48.225056 314.189351 
L 51.898167 310.321124 
L 55.571279 305.981163 
L 59.24439 301.122294 
L 61.080946 299.376874 
L 62.917501 297.442761 
L 64.754057 295.272781 
L 66.590612 292.442371 
L 68.427168 290.178044 
L 70.263724 288.904359 
L 72.100279 286.781552 
L 73.936835 283.903969 
L 75.77339 282.347244 
L 77.609946 279.280967 
L 79.446502 277.865762 
L 81.283057 275.978823 
L 83.119613 272.771025 
L 84.956169 271.733208 
L 86.792724 269.516054 
L 90.465835 265.695001 
L 94.138947 261.779602 
L 95.975502 259.656794 
L 97.812058 257.864202 
L 99.648613 255.128139 
L 101.485169 253.052506 
L 103.321725 251.684474 
L 105.15828 249.939055 
L 106.994836 247.816248 
L 108.831392 245.4104 
L 110.667947 243.664981 
L 112.504503 243.334766 
L 114.341058 241.400653 
L 118.01417 238.004162 
L 119.850725 235.834181 
L 121.687281 234.513323 
L 123.523837 233.664201 
L 125.360392 231.541394 
L 127.196948 229.795974 
L 129.033503 229.135545 
L 130.870059 226.352309 
L 132.706615 226.446656 
L 134.54317 223.380379 
L 136.379726 223.66342 
L 138.216281 220.927358 
L 141.889393 218.144122 
L 143.725948 217.294999 
L 145.562504 216.162835 
L 147.39906 215.313712 
L 149.235615 213.898508 
L 151.072171 214.134375 
L 152.908726 212.247435 
L 154.745282 211.256792 
L 156.581838 209.558546 
L 158.418393 209.369852 
L 160.254949 208.615077 
L 162.091504 207.152698 
L 163.92806 207.058351 
L 165.764616 206.445096 
L 167.601171 204.888371 
L 169.437727 204.180768 
L 171.274283 203.80338 
L 173.110838 202.71839 
L 174.947394 201.963614 
L 176.783949 201.350359 
L 178.620505 200.501236 
L 180.457061 199.180378 
L 182.293616 199.369072 
L 184.130172 197.293439 
L 185.966728 196.727357 
L 187.803283 197.104745 
L 189.639839 196.821704 
L 191.476394 195.83106 
L 193.31295 194.557376 
L 195.149506 194.463029 
L 196.986061 193.613906 
L 198.822617 193.708253 
L 200.659172 193.000651 
L 202.495728 193.330865 
L 204.332284 191.868487 
L 206.168839 192.623263 
L 208.005395 191.113711 
L 209.841951 190.311762 
L 211.678506 191.538273 
L 213.515062 190.075894 
L 215.351617 190.877844 
L 217.188173 189.132425 
L 219.024729 190.217415 
L 220.861284 187.953087 
L 222.69784 189.462639 
L 224.534395 187.292658 
L 226.370951 187.339832 
L 228.207507 187.528526 
L 230.044062 186.820923 
L 231.880618 186.490709 
L 233.717174 185.877454 
L 235.553729 187.245485 
L 237.390285 186.207668 
L 239.22684 187.103964 
L 241.063396 185.68876 
L 242.899952 186.490709 
L 244.736507 185.358545 
L 246.573063 185.169851 
L 248.409618 185.217025 
L 250.246174 184.88681 
L 252.08273 184.132034 
L 253.919285 183.896167 
L 255.755841 184.415075 
L 257.592397 183.990514 
L 259.428952 183.094218 
L 261.265508 184.792463 
L 264.938619 184.603769 
L 266.775175 183.141391 
L 268.61173 183.565953 
L 270.448286 182.575309 
L 272.284842 182.71683 
L 274.121397 183.377259 
L 275.957953 181.962054 
L 277.794508 182.150748 
L 279.631064 183.188565 
L 281.46762 182.85835 
L 283.304175 182.905524 
L 285.140731 183.141391 
L 286.977286 183.094218 
L 288.813842 181.160104 
L 290.650398 182.245095 
L 292.486953 182.292268 
L 294.323509 181.395972 
L 296.160065 181.726186 
L 297.99662 180.735543 
L 299.833176 181.065758 
L 301.669731 181.679013 
L 303.506287 181.867707 
L 305.342843 180.358155 
L 307.179398 180.924237 
L 309.015954 180.310982 
L 310.852509 182.197921 
L 312.689065 180.452502 
L 314.525621 180.877064 
L 316.362176 180.68837 
L 318.198732 179.603379 
L 320.035288 179.367512 
L 321.871843 180.924237 
L 323.708399 179.88642 
L 325.544954 179.037297 
L 327.38151 180.263808 
L 329.218066 179.88642 
L 331.054621 179.933594 
L 332.891177 180.263808 
L 334.727732 178.80143 
L 336.564288 179.131644 
L 338.400844 180.68837 
L 340.237399 178.612736 
L 342.073955 178.895777 
L 343.910511 180.310982 
L 345.747066 178.990124 
L 347.583622 180.735543 
L 349.420177 178.612736 
L 351.256733 179.414685 
L 353.093289 179.414685 
L 354.929844 180.735543 
L 356.7664 178.848603 
L 358.602956 180.924237 
L 360.439511 180.405329 
L 362.276067 180.641196 
L 364.112622 179.131644 
L 365.949178 180.499676 
L 367.785734 178.80143 
L 369.622289 179.414685 
L 371.458845 180.877064 
L 373.2954 180.971411 
L 375.131956 180.82989 
L 376.968512 179.556206 
L 378.805067 179.084471 
L 380.641623 180.405329 
L 382.478179 178.990124 
L 384.314734 180.82989 
L 386.15129 179.084471 
L 387.987845 178.80143 
L 389.824401 179.131644 
L 391.660957 179.320338 
L 393.497512 178.990124 
L 395.334068 180.877064 
L 397.170623 180.499676 
L 399.007179 180.68837 
L 400.843735 179.792073 
L 402.68029 179.225991 
L 404.516846 179.461859 
L 406.353402 178.94295 
L 408.189957 180.594023 
L 410.026513 179.225991 
L 411.863068 180.499676 
L 413.699624 180.310982 
L 415.53618 179.320338 
L 417.372735 178.659909 
L 419.209291 179.509032 
L 421.045847 180.82989 
L 422.882402 179.509032 
L 424.718958 180.877064 
L 426.555513 178.895777 
L 428.392069 179.320338 
L 430.228625 180.546849 
L 432.06518 180.735543 
L 433.901736 180.546849 
L 435.738291 178.659909 
L 437.574847 179.88642 
L 439.411403 179.131644 
L 441.247958 179.461859 
L 443.084514 179.603379 
L 444.92107 180.641196 
L 446.757625 178.754256 
L 448.594181 180.263808 
L 450.430736 179.603379 
L 452.267292 179.320338 
L 454.103848 179.461859 
L 455.940403 178.754256 
L 457.776959 180.641196 
L 459.613514 179.792073 
L 461.45007 180.027941 
L 463.286626 179.839247 
L 465.123181 180.68837 
L 466.959737 180.641196 
L 468.796293 180.310982 
L 470.632848 180.263808 
L 472.469404 179.980767 
L 474.305959 179.509032 
L 476.142515 179.461859 
L 477.979071 179.980767 
L 479.815626 180.027941 
L 481.652182 180.452502 
L 481.652182 180.452502 
" clip-path="url(#p6012e5caba)" style="fill: none; stroke: #0072b2; stroke-width: 1.1; stroke-linecap: square"/>
   </g>
   <g id="patch_6">
    <path d="M 40.878834 330.280229 
L 40.878834 171.390474 
" style="fill: none; stroke: #000000; stroke-width: 0.8; stroke-linejoin: miter; stroke-linecap: square"/>
   </g>
   <g id="patch_7">
    <path d="M 40.878834 330.280229 
L 481.652182 330.280229 
" style="fill: none; stroke: #000000; stroke-width: 0.8; stroke-linejoin: miter; stroke-linecap: square"/>
   </g>
  </g>
 </g>
 <defs>
  <clipPath id="p24865cd9c2">
   <rect x="40.878834" y="3.00024" width="440.773348" height="158.889754"/>
  </clipPath>
  <clipPath id="p6012e5caba">
   <rect x="40.878834" y="171.390474" width="440.773348" height="158.889754"/>
  </clipPath>
 </defs>
</svg>
